<?xml version="1.0" encoding="UTF-8" standalone="no"?>
<!DOCTYPE svg PUBLIC "-//W3C//DTD SVG 1.1//EN" "http://www.w3.org/Graphics/SVG/1.1/DTD/svg11.dtd">
<svg xmlns="http://www.w3.org/2000/svg" xmlns:xl="http://www.w3.org/1999/xlink" version="1.1" xmlns:dc="http://purl.org/dc/elements/1.1/" viewBox="-565.5 -181.5 1396.0214 327" X_width="1396.0214" X_height="327">
  <defs>
    <marker orient="auto" overflow="visible" markerUnits="strokeWidth" id="FilledArrow_Marker" stroke-linejoin="miter" stroke-miterlimit="10" viewBox="-1 -3 7 6" markerWidth="7" markerHeight="6" color="black">
      <g>
        <path d="M 4.8 0 L 0 -1.8 L 0 1.8 Z" fill="currentColor" stroke="currentColor" stroke-width="1"/>
      </g>
    </marker>
    <marker orient="auto" overflow="visible" markerUnits="strokeWidth" id="FilledCenterBall_Marker" stroke-linejoin="miter" stroke-miterlimit="10" viewBox="-7 -4 8 8" markerWidth="8" markerHeight="8" color="black">
      <g>
        <circle cx="-2.6999988" cy="0" r="2.69999725779288" fill="currentColor" stroke="currentColor" stroke-width="1"/>
      </g>
    </marker>
    <marker orient="auto" overflow="visible" markerUnits="strokeWidth" id="FilledCenterBall_Marker_2" stroke-linejoin="miter" stroke-miterlimit="10" viewBox="-5 -3 6 6" markerWidth="6" markerHeight="6" color="black">
      <g>
        <circle cx="-1.7999992" cy="0" r="1.79999817186192" fill="currentColor" stroke="currentColor" stroke-width="1"/>
      </g>
    </marker>
    <marker orient="auto" overflow="visible" markerUnits="strokeWidth" id="FilledArrow_Marker_2" stroke-linejoin="miter" stroke-miterlimit="10" viewBox="-6 -3 7 6" markerWidth="7" markerHeight="6" color="black">
      <g>
        <path d="M -4.8 0 L 0 1.8 L 0 -1.8 Z" fill="currentColor" stroke="currentColor" stroke-width="1"/>
      </g>
    </marker>
    <marker orient="auto" overflow="visible" markerUnits="strokeWidth" id="FilledArrow_Marker_3" stroke-linejoin="miter" stroke-miterlimit="10" viewBox="-1 -4 10 8" markerWidth="10" markerHeight="8" color="#929292">
      <g>
        <path d="M 8 0 L 0 -3 L 0 3 Z" fill="currentColor" stroke="currentColor" stroke-width="1"/>
      </g>
    </marker>
    <marker orient="auto" overflow="visible" markerUnits="strokeWidth" id="FilledArrow_Marker_4" stroke-linejoin="miter" stroke-miterlimit="10" viewBox="-1 -4 10 8" markerWidth="10" markerHeight="8" color="#929292">
      <g>
        <path d="M 8 0 L 0 -3 L 0 3 Z" fill="currentColor" stroke="currentColor" stroke-width="1"/>
      </g>
    </marker>
    <marker orient="auto" overflow="visible" markerUnits="strokeWidth" id="FilledArrow_Marker_5" stroke-linejoin="miter" stroke-miterlimit="10" viewBox="-1 -2 5 4" markerWidth="5" markerHeight="4" color="#9437ff">
      <g>
        <path d="M 2.4 0 L 0 -.9 L 0 .9 Z" fill="currentColor" stroke="currentColor" stroke-width="1"/>
      </g>
    </marker>
    <marker orient="auto" overflow="visible" markerUnits="strokeWidth" id="FilledArrow_Marker_6" stroke-linejoin="miter" stroke-miterlimit="10" viewBox="-4 -2 6 4" markerWidth="6" markerHeight="4" color="#9437ff">
      <g>
        <path d="M -2.4 0 L 0 .9 L 0 -.9 Z" fill="currentColor" stroke="currentColor" stroke-width="1"/>
      </g>
    </marker>
  </defs>
  <g id="overview" fill-opacity="1" stroke="none" stroke-opacity="1" stroke-dasharray="none" fill="none">
    <title>overview</title>
    <rect fill="white" x="-565.5" y="-181.5" width="1396.0214" height="327"/>
    <g id="overview_Layer_1">
      <title>Layer 1</title>
      <g id="Graphic_1632">
        <path d="M -202 -144 L -50 -144 C -48.89543 -144 -48 -143.10457 -48 -142 L -48 70 C -48 71.10457 -48.89543 72 -50 72 L -202 72 C -203.10457 72 -204 71.10457 -204 70 L -204 -142 C -204 -143.10457 -203.10457 -144 -202 -144 Z" fill="#ff9"/>
        <path d="M -202 -144 L -50 -144 C -48.89543 -144 -48 -143.10457 -48 -142 L -48 70 C -48 71.10457 -48.89543 72 -50 72 L -202 72 C -203.10457 72 -204 71.10457 -204 70 L -204 -142 C -204 -143.10457 -203.10457 -144 -202 -144 Z" stroke="#ff9300" stroke-linecap="round" stroke-linejoin="round" stroke-width="3"/>
        <text transform="translate(-204 -138)" fill="black">
          <tspan font-family="Menlo" font-weight="bold" font-size="8" fill="black" x="44.285156" y="7">LoraWAN domain</tspan>
        </text>
      </g>
      <g id="Graphic_1613">
        <path d="M 627.0214 -168 L 815.0214 -168 C 816.126 -168 817.0214 -167.10457 817.0214 -166 L 817.0214 -98 C 817.0214 -96.89543 816.126 -96 815.0214 -96 L 627.0214 -96 C 625.91684 -96 625.0214 -96.89543 625.0214 -98 L 625.0214 -166 C 625.0214 -167.10457 625.91684 -168 627.0214 -168 Z" fill="#ccd6ff"/>
        <path d="M 627.0214 -168 L 815.0214 -168 C 816.126 -168 817.0214 -167.10457 817.0214 -166 L 817.0214 -98 C 817.0214 -96.89543 816.126 -96 815.0214 -96 L 627.0214 -96 C 625.91684 -96 625.0214 -96.89543 625.0214 -98 L 625.0214 -166 C 625.0214 -167.10457 625.91684 -168 627.0214 -168 Z" stroke="#0432ff" stroke-linecap="round" stroke-linejoin="round" stroke-width="3"/>
        <text transform="translate(625.0214 -162)" fill="black">
          <tspan font-family="Menlo" font-weight="bold" font-size="8" fill="black" x="23.753906" y="7"> TCS-internal Dashboard domain</tspan>
        </text>
      </g>
      <g id="Graphic_1280">
        <path d="M 2 -144 L 574 -144 C 575.1046 -144 576 -143.10457 576 -142 L 576 70 C 576 71.10457 575.1046 72 574 72 L 2 72 C .8954305 72 13527075e-23 71.10457 0 70 L 12878587e-21 -142 C 13013858e-21 -143.10457 .8954305 -144 2 -144 Z" fill="#ccd6ff"/>
        <path d="M 2 -144 L 574 -144 C 575.1046 -144 576 -143.10457 576 -142 L 576 70 C 576 71.10457 575.1046 72 574 72 L 2 72 C .8954305 72 13527075e-23 71.10457 0 70 L 12878587e-21 -142 C 13013858e-21 -143.10457 .8954305 -144 2 -144 Z" stroke="#0432ff" stroke-linecap="round" stroke-linejoin="round" stroke-width="3"/>
        <text transform="translate(0 -138)" fill="black">
          <tspan font-family="Menlo" font-weight="bold" font-size="8" fill="black" x="194.08008" y="7">TokenMe Cloud Server (TCS) / API domain</tspan>
        </text>
      </g>
      <g id="Graphic_1481">
        <path d="M -550 -144 L -254 -144 C -252.89543 -144 -252 -143.10457 -252 -142 L -252 70 C -252 71.10457 -252.89543 72 -254 72 L -550 72 C -551.1046 72 -552 71.10457 -552 70 L -552 -142 C -552 -143.10457 -551.1046 -144 -550 -144 Z" fill="#ccffe9"/>
        <path d="M -550 -144 L -254 -144 C -252.89543 -144 -252 -143.10457 -252 -142 L -252 70 C -252 71.10457 -252.89543 72 -254 72 L -550 72 C -551.1046 72 -552 71.10457 -552 70 L -552 -142 C -552 -143.10457 -551.1046 -144 -550 -144 Z" stroke="#009051" stroke-linecap="round" stroke-linejoin="round" stroke-width="3"/>
        <text transform="translate(-552 -138)" fill="black">
          <tspan font-family="Menlo" font-weight="bold" font-size="8" fill="black" x="97.01953" y="7">Microcontroller domain</tspan>
        </text>
      </g>
      <g id="Graphic_1282">
        <path d="M -382 -48 L -278 -48 C -276.89543 -48 -276 -47.10457 -276 -46 L -276 -14 C -276 -12.89543 -276.89543 -12 -278 -12 L -382 -12 C -383.10457 -12 -384 -12.89543 -384 -14 L -384 -46 C -384 -47.10457 -383.10457 -48 -382 -48 Z" fill="#ffc"/>
        <path d="M -382 -48 L -278 -48 C -276.89543 -48 -276 -47.10457 -276 -46 L -276 -14 C -276 -12.89543 -276.89543 -12 -278 -12 L -382 -12 C -383.10457 -12 -384 -12.89543 -384 -14 L -384 -46 C -384 -47.10457 -383.10457 -48 -382 -48 Z" stroke="black" stroke-linecap="round" stroke-linejoin="round" stroke-width="1.5"/>
        <text transform="translate(-380 -39)" fill="black">
          <tspan font-family="Menlo" font-weight="bold" font-size="8" fill="black" x="35.55078" y="7">Anchor</tspan>
          <tspan font-family="Menlo" font-size="8" fill="black" x="4.2441406" y="16">(sends msg-updates)</tspan>
        </text>
      </g>
      <g id="Graphic_1389">
        <path d="M -526 -48 L -422 -48 C -420.89543 -48 -420 -47.10457 -420 -46 L -420 -14 C -420 -12.89543 -420.89543 -12 -422 -12 L -526 -12 C -527.1046 -12 -528 -12.89543 -528 -14 L -528 -46 C -528 -47.10457 -527.1046 -48 -526 -48 Z" fill="#ffc"/>
        <path d="M -526 -48 L -422 -48 C -420.89543 -48 -420 -47.10457 -420 -46 L -420 -14 C -420 -12.89543 -420.89543 -12 -422 -12 L -526 -12 C -527.1046 -12 -528 -12.89543 -528 -14 L -528 -46 C -528 -47.10457 -527.1046 -48 -526 -48 Z" stroke="black" stroke-linecap="round" stroke-linejoin="round" stroke-width="1.5"/>
        <text transform="translate(-524 -39)" fill="black">
          <tspan font-family="Menlo" font-weight="bold" font-size="8" fill="black" x="37.958984" y="7">Token</tspan>
          <tspan font-family="Menlo" font-size="8" fill="black" x="1.8359375" y="16">(sends presence-msg)</tspan>
        </text>
      </g>
      <g id="Line_1396">
        <line x1="-420" y1="-36" x2="-396.9" y2="-36" marker-end="url(#FilledArrow_Marker)" stroke="black" stroke-linecap="round" stroke-linejoin="round" stroke-width="2"/>
      </g>
      <g id="Graphic_1582">
        <path d="M 627.0214 0 L 815.0214 0 C 816.126 67635375e-24 817.0214 .8954305 817.0214 2 L 817.0214 130 C 817.0214 131.10457 816.126 132 815.0214 132 L 627.0214 132 C 625.91684 132 625.0214 131.10457 625.0214 130 L 625.0214 2 C 625.0214 .8954305 625.91684 -67635375e-24 627.0214 0 Z" fill="#ffd9ff"/>
        <path d="M 627.0214 0 L 815.0214 0 C 816.126 67635375e-24 817.0214 .8954305 817.0214 2 L 817.0214 130 C 817.0214 131.10457 816.126 132 815.0214 132 L 627.0214 132 C 625.91684 132 625.0214 131.10457 625.0214 130 L 625.0214 2 C 625.0214 .8954305 625.91684 -67635375e-24 627.0214 0 Z" stroke="#ff2f92" stroke-linecap="round" stroke-linejoin="round" stroke-width="3"/>
        <text transform="translate(625.0214 6)" fill="black">
          <tspan font-family="Menlo" font-weight="bold" font-size="8" fill="black" x="35.79492" y="7">Blockbax Dashboard domain</tspan>
        </text>
      </g>
      <g id="Graphic_1583">
        <path d="M 206 -48 L 346 -48 C 347.10457 -48 348 -47.10457 348 -46 L 348 -14 C 348 -12.89543 347.10457 -12 346 -12 L 206 -12 C 204.89543 -12 204 -12.89543 204 -14 L 204 -46 C 204 -47.10457 204.89543 -48 206 -48 Z" fill="#ffc"/>
        <path d="M 206 -48 L 346 -48 C 347.10457 -48 348 -47.10457 348 -46 L 348 -14 C 348 -12.89543 347.10457 -12 346 -12 L 206 -12 C 204.89543 -12 204 -12.89543 204 -14 L 204 -46 C 204 -47.10457 204.89543 -48 206 -48 Z" stroke="black" stroke-linecap="round" stroke-linejoin="round" stroke-width="1.5"/>
        <text transform="translate(208 -39)" fill="black">
          <tspan font-family="Menlo" font-weight="bold" font-size="8" fill="black" x="19.835938" y="7">Repstring Processing</tspan>
          <tspan font-family="Menlo" font-size="8" fill="black" x=".5703125" y="16">(saves TTL &amp; Sensors in obj)</tspan>
        </text>
      </g>
      <g id="Line_1584">
        <line x1="-72" y1="-36" x2="11.1" y2="-36" marker-end="url(#FilledArrow_Marker)" stroke="black" stroke-linecap="round" stroke-linejoin="round" stroke-width="2"/>
      </g>
      <g id="Graphic_1585">
        <path d="M 651.0214 -144 L 791.0214 -144 C 792.126 -144 793.0214 -143.10457 793.0214 -142 L 793.0214 -110 C 793.0214 -108.89543 792.126 -108 791.0214 -108 L 651.0214 -108 C 649.91684 -108 649.0214 -108.89543 649.0214 -110 L 649.0214 -142 C 649.0214 -143.10457 649.91684 -144 651.0214 -144 Z" fill="#73fb79"/>
        <path d="M 651.0214 -144 L 791.0214 -144 C 792.126 -144 793.0214 -143.10457 793.0214 -142 L 793.0214 -110 C 793.0214 -108.89543 792.126 -108 791.0214 -108 L 651.0214 -108 C 649.91684 -108 649.0214 -108.89543 649.0214 -110 L 649.0214 -142 C 649.0214 -143.10457 649.91684 -144 651.0214 -144 Z" stroke="black" stroke-linecap="round" stroke-linejoin="round" stroke-width="1.5"/>
        <text transform="translate(653.0214 -135)" fill="black">
          <tspan font-family="Menlo" font-weight="bold" font-size="8" fill="black" x="60.77539" y="7">EDB</tspan>
          <tspan font-family="Menlo" font-size="8" fill="black" x="19.835938" y="16">(Engineer Dashboard)</tspan>
        </text>
      </g>
      <g id="Line_1586">
        <path d="M 360 0 L 384 0 L 384 30 L 394.1 30" marker-end="url(#FilledArrow_Marker)" stroke="black" stroke-linecap="round" stroke-linejoin="round" stroke-width="2"/>
      </g>
      <g id="Graphic_1587">
        <path d="M 651.0214 24 L 791.0214 24 C 792.126 24 793.0214 24.89543 793.0214 26 L 793.0214 58 C 793.0214 59.10457 792.126 60 791.0214 60 L 651.0214 60 C 649.91684 60 649.0214 59.10457 649.0214 58 L 649.0214 26 C 649.0214 24.89543 649.91684 24 651.0214 24 Z" fill="#ffc"/>
        <path d="M 651.0214 24 L 791.0214 24 C 792.126 24 793.0214 24.89543 793.0214 26 L 793.0214 58 C 793.0214 59.10457 792.126 60 791.0214 60 L 651.0214 60 C 649.91684 60 649.0214 59.10457 649.0214 58 L 649.0214 26 C 649.0214 24.89543 649.91684 24 651.0214 24 Z" stroke="black" stroke-linecap="round" stroke-linejoin="round" stroke-width="1.5"/>
        <text transform="translate(653.0214 33)" fill="black">
          <tspan font-family="Menlo" font-weight="bold" font-size="8" fill="black" x="27.060547" y="7">Inbound Connector</tspan>
          <tspan font-family="Menlo" font-size="8" fill="black" x=".5703125" y="16">(saves metrics in a Subject)</tspan>
        </text>
      </g>
      <g id="Graphic_1589">
        <path d="M 651.0214 84 L 791.0214 84 C 792.126 84 793.0214 84.89543 793.0214 86 L 793.0214 118 C 793.0214 119.10457 792.126 120 791.0214 120 L 651.0214 120 C 649.91684 120 649.0214 119.10457 649.0214 118 L 649.0214 86 C 649.0214 84.89543 649.91684 84 651.0214 84 Z" fill="#73fb79"/>
        <path d="M 651.0214 84 L 791.0214 84 C 792.126 84 793.0214 84.89543 793.0214 86 L 793.0214 118 C 793.0214 119.10457 792.126 120 791.0214 120 L 651.0214 120 C 649.91684 120 649.0214 119.10457 649.0214 118 L 649.0214 86 C 649.0214 84.89543 649.91684 84 651.0214 84 Z" stroke="black" stroke-linecap="round" stroke-linejoin="round" stroke-width="1.5"/>
        <text transform="translate(653.0214 93)" fill="black">
          <tspan font-family="Menlo" font-weight="bold" font-size="8" fill="black" x="24.652344" y="7">Blockbax</tspan>
          <tspan font-family="Menlo" font-weight="bold" font-size="8" fill="black" y="7"> Dashboard</tspan>
          <tspan font-family="Menlo" font-size="8" fill="black" x="34.285156" y="16">(show metrics)</tspan>
        </text>
      </g>
      <g id="Line_1590">
        <line x1="721.0214" y1="60.75" x2="721.0214" y2="70.35" marker-end="url(#FilledArrow_Marker)" stroke="black" stroke-linecap="round" stroke-linejoin="round" stroke-width="2"/>
      </g>
      <g id="Graphic_1591">
        <path d="M 206 12 L 346 12 C 347.10457 12 348 12.89543 348 14 L 348 46 C 348 47.10457 347.10457 48 346 48 L 206 48 C 204.89543 48 204 47.10457 204 46 L 204 14 C 204 12.89543 204.89543 12 206 12 Z" fill="#ffc"/>
        <path d="M 206 12 L 346 12 C 347.10457 12 348 12.89543 348 14 L 348 46 C 348 47.10457 347.10457 48 346 48 L 206 48 C 204.89543 48 204 47.10457 204 46 L 204 14 C 204 12.89543 204.89543 12 206 12 Z" stroke="black" stroke-linecap="round" stroke-linejoin="round" stroke-width="1.5"/>
        <text transform="translate(208 21)" fill="black">
          <tspan font-family="Menlo" font-weight="bold" font-size="8" fill="black" x=".5703125" y="7">Consolidated-Data Processing</tspan>
          <tspan font-family="Menlo" font-size="8" fill="black" x="12.611328" y="16">(saves cdf-data in obj)</tspan>
        </text>
      </g>
      <g id="Line_1592">
        <line x1="276" y1="-11.25" x2="276" y2="-1.65" marker-end="url(#FilledArrow_Marker)" stroke="black" stroke-linecap="round" stroke-linejoin="round" stroke-width="2"/>
      </g>
      <g id="Graphic_1593">
        <path d="M -526 12 L -422 12 C -420.89543 12 -420 12.89543 -420 14 L -420 46 C -420 47.10457 -420.89543 48 -422 48 L -526 48 C -527.1046 48 -528 47.10457 -528 46 L -528 14 C -528 12.89543 -527.1046 12 -526 12 Z" fill="#ffc"/>
        <path d="M -526 12 L -422 12 C -420.89543 12 -420 12.89543 -420 14 L -420 46 C -420 47.10457 -420.89543 48 -422 48 L -526 48 C -527.1046 48 -528 47.10457 -528 46 L -528 14 C -528 12.89543 -527.1046 12 -526 12 Z" stroke="black" stroke-linecap="round" stroke-linejoin="round" stroke-width="1.5"/>
        <text transform="translate(-524 21)" fill="black">
          <tspan font-family="Menlo" font-weight="bold" font-size="8" fill="black" x="33.14258" y="7">Sensors</tspan>
          <tspan font-family="Menlo" font-size="8" fill="black" x="11.46875" y="16">(sends raw data)</tspan>
        </text>
      </g>
      <g id="Line_1594">
        <line x1="-474" y1="11.25" x2="-474" y2="1.65" marker-end="url(#FilledArrow_Marker)" stroke="black" stroke-linecap="round" stroke-linejoin="round" stroke-width="2"/>
      </g>
      <g id="Graphic_1595">
        <path d="M -382 12 L -278 12 C -276.89543 12 -276 12.89543 -276 14 L -276 46 C -276 47.10457 -276.89543 48 -278 48 L -382 48 C -383.10457 48 -384 47.10457 -384 46 L -384 14 C -384 12.89543 -383.10457 12 -382 12 Z" fill="#ffc"/>
        <path d="M -382 12 L -278 12 C -276.89543 12 -276 12.89543 -276 14 L -276 46 C -276 47.10457 -276.89543 48 -278 48 L -382 48 C -383.10457 48 -384 47.10457 -384 46 L -384 14 C -384 12.89543 -383.10457 12 -382 12 Z" stroke="black" stroke-linecap="round" stroke-linejoin="round" stroke-width="1.5"/>
        <text transform="translate(-380 21)" fill="black">
          <tspan font-family="Menlo" font-weight="bold" font-size="8" fill="black" x="33.14258" y="7">Sensors</tspan>
          <tspan font-family="Menlo" font-size="8" fill="black" x="11.46875" y="16">(sends raw data)</tspan>
        </text>
      </g>
      <g id="Line_1596">
        <line x1="-330" y1="11.25" x2="-330" y2="1.65" marker-end="url(#FilledArrow_Marker)" stroke="black" stroke-linecap="round" stroke-linejoin="round" stroke-width="2"/>
      </g>
      <g id="Line_1598">
        <path d="M 348.75 -30 L 360 -30 L 360 30 L 348 30" stroke="black" stroke-linecap="round" stroke-linejoin="round" stroke-width="2"/>
      </g>
      <g id="Line_1599">
        <path d="M 377.4 0 L 384 0 L 384 -30 L 394.35 -30" marker-end="url(#FilledArrow_Marker)" marker-start="url(#FilledCenterBall_Marker)" stroke="black" stroke-linecap="round" stroke-linejoin="round" stroke-width="2"/>
      </g>
      <g id="Graphic_1600">
        <path d="M 26 12 L 166 12 C 167.10457 12 168 12.89543 168 14 L 168 46 C 168 47.10457 167.10457 48 166 48 L 26 48 C 24.89543 48 24 47.10457 24 46 L 24 14 C 24 12.89543 24.89543 12 26 12 Z" fill="#ffc"/>
        <path d="M 26 12 L 166 12 C 167.10457 12 168 12.89543 168 14 L 168 46 C 168 47.10457 167.10457 48 166 48 L 26 48 C 24.89543 48 24 47.10457 24 46 L 24 14 C 24 12.89543 24.89543 12 26 12 Z" stroke="#ff2600" stroke-linecap="round" stroke-linejoin="round" stroke-width="2"/>
        <text transform="translate(28 21)" fill="black">
          <tspan font-family="Menlo" font-weight="bold" font-size="8" fill="black" x="24.652344" y="7">Config—Push daemon</tspan>
          <tspan font-family="Menlo" font-size="8" fill="black" x="7.794922" y="16">(sends Anchor-config-msg)</tspan>
        </text>
      </g>
      <g id="Line_1602">
        <path d="M 24 30 L 12 30 L 12 -24 L -59.1 -24" marker-end="url(#FilledArrow_Marker)" stroke="black" stroke-linecap="round" stroke-linejoin="round" stroke-width="2"/>
      </g>
      <g id="Line_1603">
        <line x1="-384" y1="-24" x2="-407.1" y2="-24" marker-end="url(#FilledArrow_Marker)" stroke="black" stroke-linecap="round" stroke-linejoin="round" stroke-width="2"/>
      </g>
      <g id="Graphic_1604">
        <path d="M 26 -48 L 166 -48 C 167.10457 -48 168 -47.10457 168 -46 L 168 -14 C 168 -12.89543 167.10457 -12 166 -12 L 26 -12 C 24.89543 -12 24 -12.89543 24 -14 L 24 -46 C 24 -47.10457 24.89543 -48 26 -48 Z" fill="#ffc"/>
        <path d="M 26 -48 L 166 -48 C 167.10457 -48 168 -47.10457 168 -46 L 168 -14 C 168 -12.89543 167.10457 -12 166 -12 L 26 -12 C 24.89543 -12 24 -12.89543 24 -14 L 24 -46 C 24 -47.10457 24.89543 -48 26 -48 Z" stroke="#ff2600" stroke-linecap="round" stroke-linejoin="round" stroke-width="2"/>
        <text transform="translate(28 -39)" fill="black">
          <tspan font-family="Menlo" font-weight="bold" font-size="8" fill="black" x="24.652344" y="7">Data—Import daemon</tspan>
          <tspan font-family="Menlo" font-size="8" fill="black" x="7.794922" y="16">(collects Anchor-updates)</tspan>
        </text>
      </g>
      <g id="Line_1605">
        <line x1="169" y1="-30" x2="191.1" y2="-30" marker-end="url(#FilledArrow_Marker)" stroke="black" stroke-linecap="round" stroke-linejoin="round" stroke-width="2"/>
      </g>
      <g id="Graphic_1606">
        <text transform="translate(-72 -49.5)" fill="black">
          <tspan font-family="Menlo" font-size="8" fill="black" x="33.55078" y="7">Uplink</tspan>
        </text>
      </g>
      <g id="Graphic_1607">
        <text transform="translate(24 79.5)" fill="black">
          <tspan font-family="Menlo" font-size="8" fill="black" x="0" y="7">Legend:</tspan>
        </text>
      </g>
      <g id="Graphic_1608">
        <path d="M 26 96 L 166 96 C 167.10457 96 168 96.89543 168 98 L 168 130 C 168 131.10457 167.10457 132 166 132 L 26 132 C 24.89543 132 24 131.10457 24 130 L 24 98 C 24 96.89543 24.89543 96 26 96 Z" fill="#ffc"/>
        <path d="M 26 96 L 166 96 C 167.10457 96 168 96.89543 168 98 L 168 130 C 168 131.10457 167.10457 132 166 132 L 26 132 C 24.89543 132 24 131.10457 24 130 L 24 98 C 24 96.89543 24.89543 96 26 96 Z" stroke="#ff2600" stroke-linecap="round" stroke-linejoin="round" stroke-width="2"/>
        <text transform="translate(28 105)" fill="black">
          <tspan font-family="Menlo" font-size="8" fill="black" x=".5703125" y="7">Code that runs as a separate </tspan>
          <tspan font-family="Menlo" font-size="8" fill="black" x="29.46875" y="16">process (daemon)</tspan>
        </text>
      </g>
      <g id="Graphic_1609">
        <path d="M 206 96 L 346 96 C 347.10457 96 348 96.89543 348 98 L 348 130 C 348 131.10457 347.10457 132 346 132 L 206 132 C 204.89543 132 204 131.10457 204 130 L 204 98 C 204 96.89543 204.89543 96 206 96 Z" fill="#ffc"/>
        <path d="M 206 96 L 346 96 C 347.10457 96 348 96.89543 348 98 L 348 130 C 348 131.10457 347.10457 132 346 132 L 206 132 C 204.89543 132 204 131.10457 204 130 L 204 98 C 204 96.89543 204.89543 96 206 96 Z" stroke="black" stroke-linecap="round" stroke-linejoin="round" stroke-width="1.5"/>
        <text transform="translate(208 105)" fill="black">
          <tspan font-family="Menlo" font-size="8" fill="black" x="7.794922" y="7">Code that runs as part of </tspan>
          <tspan font-family="Menlo" font-size="8" fill="black" x="15.019531" y="16">the global API process</tspan>
        </text>
      </g>
      <g id="Graphic_1610">
        <path d="M 410 96 L 550 96 C 551.1046 96 552 96.89543 552 98 L 552 130 C 552 131.10457 551.1046 132 550 132 L 410 132 C 408.89543 132 408 131.10457 408 130 L 408 98 C 408 96.89543 408.89543 96 410 96 Z" fill="#73fb79"/>
        <path d="M 410 96 L 550 96 C 551.1046 96 552 96.89543 552 98 L 552 130 C 552 131.10457 551.1046 132 550 132 L 410 132 C 408.89543 132 408 131.10457 408 130 L 408 98 C 408 96.89543 408.89543 96 410 96 Z" stroke="black" stroke-linecap="round" stroke-linejoin="round" stroke-width="1.5"/>
        <text transform="translate(412 105)" fill="black">
          <tspan font-family="Menlo" font-size="8" fill="black" x="10.203125" y="7">Code for generating web-</tspan>
          <tspan font-family="Menlo" font-size="8" fill="black" x="15.019531" y="16">pages and interactions</tspan>
        </text>
      </g>
      <g id="Graphic_1611">
        <text transform="translate(-72 -16.5)" fill="black">
          <tspan font-family="Menlo" font-size="8" fill="black" x="28.734375" y="7">Downlink</tspan>
        </text>
      </g>
      <g id="Graphic_1612">
        <path d="M 410 -48 L 550 -48 C 551.1046 -48 552 -47.10457 552 -46 L 552 -14 C 552 -12.89543 551.1046 -12 550 -12 L 410 -12 C 408.89543 -12 408 -12.89543 408 -14 L 408 -46 C 408 -47.10457 408.89543 -48 410 -48 Z" fill="#ffc"/>
        <path d="M 410 -48 L 550 -48 C 551.1046 -48 552 -47.10457 552 -46 L 552 -14 C 552 -12.89543 551.1046 -12 550 -12 L 410 -12 C 408.89543 -12 408 -12.89543 408 -14 L 408 -46 C 408 -47.10457 408.89543 -48 410 -48 Z" stroke="black" stroke-linecap="round" stroke-linejoin="round" stroke-width="1.5"/>
        <text transform="translate(412 -39)" fill="black">
          <tspan font-family="Menlo" font-weight="bold" font-size="8" fill="black" x="34.285156" y="7">API End-Points</tspan>
          <tspan font-family="Menlo" font-size="8" fill="black" x="27.060547" y="16">(read/write data)</tspan>
        </text>
      </g>
      <g id="Line_1601">
        <path d="M 480 -7.65 L 480 0 L 456 0 L 432 60 L 192 60 L 192 30 L 180.9 30" marker-end="url(#FilledArrow_Marker)" marker-start="url(#FilledCenterBall_Marker_2)" stroke="black" stroke-linecap="round" stroke-linejoin="round" stroke-width="2"/>
      </g>
      <g id="Graphic_1597">
        <path d="M 410 12 L 550 12 C 551.1046 12 552 12.89543 552 14 L 552 46 C 552 47.10457 551.1046 48 550 48 L 410 48 C 408.89543 48 408 47.10457 408 46 L 408 14 C 408 12.89543 408.89543 12 410 12 Z" fill="#ffc"/>
        <path d="M 410 12 L 550 12 C 551.1046 12 552 12.89543 552 14 L 552 46 C 552 47.10457 551.1046 48 550 48 L 410 48 C 408.89543 48 408 47.10457 408 46 L 408 14 C 408 12.89543 408.89543 12 410 12 Z" stroke="#ff2600" stroke-linecap="round" stroke-linejoin="round" stroke-width="2"/>
        <text transform="translate(412 21)" fill="black">
          <tspan font-family="Menlo" font-weight="bold" font-size="8" fill="black" x="24.652344" y="7">Data-Export daemon</tspan>
          <tspan font-family="Menlo" font-size="8" fill="black" x="5.386719" y="16">(contin. unsolicited push)</tspan>
        </text>
      </g>
      <g id="Line_1614">
        <path d="M 564.9 -42 L 588 -42 L 612 -126 L 636.1214 -126" marker-end="url(#FilledArrow_Marker)" marker-start="url(#FilledArrow_Marker_2)" stroke="black" stroke-linecap="round" stroke-linejoin="round" stroke-width="2"/>
      </g>
      <g id="Graphic_1618">
        <path d="M 627.0214 -84 L 815.0214 -84 C 816.126 -84 817.0214 -83.10457 817.0214 -82 L 817.0214 -14 C 817.0214 -12.89543 816.126 -12 815.0214 -12 L 627.0214 -12 C 625.91684 -12 625.0214 -12.89543 625.0214 -14 L 625.0214 -82 C 625.0214 -83.10457 625.91684 -84 627.0214 -84 Z" fill="#ffdfb3"/>
        <path d="M 627.0214 -84 L 815.0214 -84 C 816.126 -84 817.0214 -83.10457 817.0214 -82 L 817.0214 -14 C 817.0214 -12.89543 816.126 -12 815.0214 -12 L 627.0214 -12 C 625.91684 -12 625.0214 -12.89543 625.0214 -14 L 625.0214 -82 C 625.0214 -83.10457 625.91684 -84 627.0214 -84 Z" stroke="#ff9300" stroke-linecap="round" stroke-linejoin="round" stroke-width="3"/>
        <text transform="translate(625.0214 -78)" fill="black">
          <tspan font-family="Menlo" font-weight="bold" font-size="8" fill="black" x="18.9375" y="7"> Time-Reporting Dashboard domain</tspan>
        </text>
      </g>
      <g id="Graphic_1619">
        <path d="M 651.0214 -60 L 791.0214 -60 C 792.126 -60 793.0214 -59.10457 793.0214 -58 L 793.0214 -26 C 793.0214 -24.89543 792.126 -24 791.0214 -24 L 651.0214 -24 C 649.91684 -24 649.0214 -24.89543 649.0214 -26 L 649.0214 -58 C 649.0214 -59.10457 649.91684 -60 651.0214 -60 Z" fill="#73fb79"/>
        <path d="M 651.0214 -60 L 791.0214 -60 C 792.126 -60 793.0214 -59.10457 793.0214 -58 L 793.0214 -26 C 793.0214 -24.89543 792.126 -24 791.0214 -24 L 651.0214 -24 C 649.91684 -24 649.0214 -24.89543 649.0214 -26 L 649.0214 -58 C 649.0214 -59.10457 649.91684 -60 651.0214 -60 Z" stroke="black" stroke-linecap="round" stroke-linejoin="round" stroke-width="1.5"/>
        <text transform="translate(653.0214 -51)" fill="black">
          <tspan font-family="Menlo" font-weight="bold" font-size="8" fill="black" x="58.36719" y="7">TM-S</tspan>
          <tspan font-family="Menlo" font-size="8" fill="black" x="5.386719" y="16">(Time-Reporting Dashboard)</tspan>
        </text>
      </g>
      <g id="Line_1620">
        <path d="M 555.6 -18 L 588 -18 L 612 -42 L 636.1214 -42" marker-end="url(#FilledArrow_Marker)" marker-start="url(#FilledCenterBall_Marker_2)" stroke="black" stroke-linecap="round" stroke-linejoin="round" stroke-width="2"/>
      </g>
      <g id="Graphic_1621">
        <path d="M -178 -48 L -74 -48 C -72.89543 -48 -72 -47.10457 -72 -46 L -72 -14 C -72 -12.89543 -72.89543 -12 -74 -12 L -178 -12 C -179.10457 -12 -180 -12.89543 -180 -14 L -180 -46 C -180 -47.10457 -179.10457 -48 -178 -48 Z" fill="#ffc"/>
        <path d="M -178 -48 L -74 -48 C -72.89543 -48 -72 -47.10457 -72 -46 L -72 -14 C -72 -12.89543 -72.89543 -12 -74 -12 L -178 -12 C -179.10457 -12 -180 -12.89543 -180 -14 L -180 -46 C -180 -47.10457 -179.10457 -48 -178 -48 Z" stroke="black" stroke-linecap="round" stroke-linejoin="round" stroke-width="1.5"/>
        <text transform="translate(-176 -39)" fill="black">
          <tspan font-family="Menlo" font-weight="bold" font-size="8" fill="black" x="11.46875" y="7">TTN - msg_broker</tspan>
          <tspan font-family="Menlo" font-size="8" fill="black" x="9.060547" y="16">(sends/rcvs msgs)</tspan>
        </text>
      </g>
      <g id="Graphic_1622">
        <path d="M -178 -108 L -74 -108 C -72.89543 -108 -72 -107.10457 -72 -106 L -72 -74 C -72 -72.89543 -72.89543 -72 -74 -72 L -178 -72 C -179.10457 -72 -180 -72.89543 -180 -74 L -180 -106 C -180 -107.10457 -179.10457 -108 -178 -108 Z" fill="#ffc"/>
        <path d="M -178 -108 L -74 -108 C -72.89543 -108 -72 -107.10457 -72 -106 L -72 -74 C -72 -72.89543 -72.89543 -72 -74 -72 L -178 -72 C -179.10457 -72 -180 -72.89543 -180 -74 L -180 -106 C -180 -107.10457 -179.10457 -108 -178 -108 Z" stroke="black" stroke-linecap="round" stroke-linejoin="round" stroke-width="1.5"/>
        <text transform="translate(-176 -99)" fill="black">
          <tspan font-family="Menlo" font-weight="bold" font-size="8" fill="black" x="9.060547" y="7">Payload Formatter</tspan>
          <tspan font-family="Menlo" font-size="8" fill="black" x="11.46875" y="16">(extract fields)</tspan>
        </text>
      </g>
      <g id="Line_1623">
        <line x1="-126" y1="-11.25" x2="-126" y2="-1.65" marker-end="url(#FilledArrow_Marker)" stroke="black" stroke-linecap="round" stroke-linejoin="round" stroke-width="2"/>
      </g>
      <g id="Graphic_1624">
        <path d="M -178 12 L -74 12 C -72.89543 12 -72 12.89543 -72 14 L -72 46 C -72 47.10457 -72.89543 48 -74 48 L -178 48 C -179.10457 48 -180 47.10457 -180 46 L -180 14 C -180 12.89543 -179.10457 12 -178 12 Z" fill="#73fb79"/>
        <path d="M -178 12 L -74 12 C -72.89543 12 -72 12.89543 -72 14 L -72 46 C -72 47.10457 -72.89543 48 -74 48 L -178 48 C -179.10457 48 -180 47.10457 -180 46 L -180 14 C -180 12.89543 -179.10457 12 -178 12 Z" stroke="black" stroke-linecap="round" stroke-linejoin="round" stroke-width="1.5"/>
        <text transform="translate(-176 21)" fill="black">
          <tspan font-family="Menlo" font-weight="bold" font-size="8" fill="black" x="18.69336" y="7">TTN Dashboard</tspan>
          <tspan font-family="Menlo" font-size="8" fill="black" x="1.8359375" y="16">(LoraWan/Msg detail)</tspan>
        </text>
      </g>
      <g id="Line_1625">
        <line x1="-96" y1="-72" x2="-96" y2="-60.9" marker-end="url(#FilledArrow_Marker)" stroke="black" stroke-linecap="round" stroke-linejoin="round" stroke-width="2"/>
      </g>
      <g id="Line_1626">
        <line x1="-156" y1="-48" x2="-156" y2="-59.1" marker-end="url(#FilledArrow_Marker)" stroke="black" stroke-linecap="round" stroke-linejoin="round" stroke-width="2"/>
      </g>
      <g id="Line_1628">
        <line x1="-276" y1="-36" x2="-192.9" y2="-36" marker-end="url(#FilledArrow_Marker)" stroke="black" stroke-linecap="round" stroke-linejoin="round" stroke-width="2"/>
      </g>
      <g id="Line_1629">
        <line x1="-180" y1="-24" x2="-263.1" y2="-24" marker-end="url(#FilledArrow_Marker)" stroke="black" stroke-linecap="round" stroke-linejoin="round" stroke-width="2"/>
      </g>
      <g id="Graphic_1630">
        <text transform="translate(-276 -49.5)" fill="black">
          <tspan font-family="Menlo" font-size="8" fill="black" x="33.55078" y="7">Uplink</tspan>
        </text>
      </g>
      <g id="Graphic_1631">
        <text transform="translate(-276 -16.5)" fill="black">
          <tspan font-family="Menlo" font-size="8" fill="black" x="28.734375" y="7">Downlink</tspan>
        </text>
      </g>
      <g id="Graphic_1633">
        <path d="M 302 -108 L 442 -108 C 443.10457 -108 444 -107.10457 444 -106 L 444 -74 C 444 -72.89543 443.10457 -72 442 -72 L 302 -72 C 300.89543 -72 300 -72.89543 300 -74 L 300 -106 C 300 -107.10457 300.89543 -108 302 -108 Z" fill="#ffc"/>
        <path d="M 302 -108 L 442 -108 C 443.10457 -108 444 -107.10457 444 -106 L 444 -74 C 444 -72.89543 443.10457 -72 442 -72 L 302 -72 C 300.89543 -72 300 -72.89543 300 -74 L 300 -106 C 300 -107.10457 300.89543 -108 302 -108 Z" stroke="#ff2600" stroke-linecap="round" stroke-linejoin="round" stroke-width="2"/>
        <text transform="translate(304 -99)" fill="black">
          <tspan font-family="Menlo" font-weight="bold" font-size="8" fill="black" x="17.427734" y="7">Data-Processor daemon</tspan>
          <tspan font-family="Menlo" font-size="8" fill="black" x=".5703125" y="16">(independent/interval-based)</tspan>
        </text>
      </g>
      <g id="Line_1634">
        <line x1="372" y1="-59.1" x2="372" y2="-18.9" marker-end="url(#FilledArrow_Marker)" marker-start="url(#FilledArrow_Marker_2)" stroke="black" stroke-linecap="round" stroke-linejoin="round" stroke-width="2"/>
      </g>
      <g id="Graphic_1636">
        <path d="M 113 -108 L 253 -108 C 254.10457 -108 255 -107.10457 255 -106 L 255 -74 C 255 -72.89543 254.10457 -72 253 -72 L 113 -72 C 111.89543 -72 111 -72.89543 111 -74 L 111 -106 C 111 -107.10457 111.89543 -108 113 -108 Z" fill="#ffc"/>
        <path d="M 113 -108 L 253 -108 C 254.10457 -108 255 -107.10457 255 -106 L 255 -74 C 255 -72.89543 254.10457 -72 253 -72 L 113 -72 C 111.89543 -72 111 -72.89543 111 -74 L 111 -106 C 111 -107.10457 111.89543 -108 113 -108 Z" stroke="black" stroke-linecap="round" stroke-linejoin="round" stroke-dasharray="6.0,6.0" stroke-width="1.5"/>
        <text transform="translate(115 -103.5)" fill="#9437ff">
          <tspan font-family="Menlo" font-weight="bold" font-size="8" fill="#9437ff" x="7.794922" y="7">TTL = Token-Time-Location</tspan>
          <tspan font-family="Menlo" font-size="8" fill="black" x="7.794922" y="16">anchor_obj.tokens = &lt;TTL&gt;</tspan>
          <tspan font-family="Menlo" font-size="8" fill="black" x="7.794922" y="25">token_obj.anchors = &lt;TTL&gt;</tspan>
        </text>
      </g>
      <g id="Graphic_1637">
        <path d="M -262 -168 L -194 -168 C -192.89543 -168 -192 -167.10457 -192 -166 L -192 -154 C -192 -152.89543 -192.89543 -152 -194 -152 L -262 -152 C -263.10457 -152 -264 -152.89543 -264 -154 L -264 -166 C -264 -167.10457 -263.10457 -168 -262 -168 Z" stroke="#929292" stroke-linecap="round" stroke-linejoin="round" stroke-dasharray="4.0,4.0" stroke-width="1"/>
        <text transform="translate(-264 -164.5)" fill="black">
          <tspan font-family="Menlo" font-size="8" fill="black" x="19.142578" y="7">LoraWAN</tspan>
        </text>
      </g>
      <g id="Line_1639">
        <line x1="-228" y1="-152" x2="-228" y2="-93.9" marker-end="url(#FilledArrow_Marker_3)" stroke="#929292" stroke-linecap="round" stroke-linejoin="round" stroke-dasharray="4.0,4.0" stroke-width="1"/>
      </g>
      <g id="Graphic_1640">
        <path d="M -58 -168 L 10 -168 C 11.10457 -168 12 -167.10457 12 -166 L 12 -154 C 12 -152.89543 11.10457 -152 10 -152 L -58 -152 C -59.10457 -152 -60 -152.89543 -60 -154 L -60 -166 C -60 -167.10457 -59.10457 -168 -58 -168 Z" stroke="#929292" stroke-linecap="round" stroke-linejoin="round" stroke-dasharray="4.0,4.0" stroke-width="1"/>
        <text transform="translate(-60 -164.5)" fill="black">
          <tspan font-family="Menlo" font-size="8" fill="black" x="26.367188" y="7">MQTT</tspan>
        </text>
      </g>
      <g id="Line_1641">
        <line x1="-24" y1="-152" x2="-24" y2="-93.9" marker-end="url(#FilledArrow_Marker_4)" stroke="#929292" stroke-linecap="round" stroke-linejoin="round" stroke-dasharray="4.0,4.0" stroke-width="1"/>
      </g>
      <g id="Line_1642">
        <line x1="372" y1="14.1" x2="372" y2="33.15" marker-end="url(#FilledArrow_Marker_5)" marker-start="url(#FilledArrow_Marker_6)" stroke="#9437ff" stroke-linecap="round" stroke-linejoin="round" stroke-width="2"/>
      </g>
      <g id="Graphic_1643">
        <path d="M 365 42 L 379 42 C 380.10457 42 381 42.89543 381 44 L 381 52 C 381 53.10457 380.10457 54 379 54 L 365 54 C 363.89543 54 363 53.10457 363 52 L 363 44 C 363 42.89543 363.89543 42 365 42 Z" fill="#ffc"/>
        <path d="M 365 42 L 379 42 C 380.10457 42 381 42.89543 381 44 L 381 52 C 381 53.10457 380.10457 54 379 54 L 365 54 C 363.89543 54 363 53.10457 363 52 L 363 44 C 363 42.89543 363.89543 42 365 42 Z" stroke="#9437ff" stroke-linecap="round" stroke-linejoin="round" stroke-width="1.5"/>
        <text transform="translate(363 43.5)" fill="#9437ff">
          <tspan font-family="Menlo" font-weight="bold" font-size="8" fill="#9437ff" x="4.1835938" y="7">DB</tspan>
        </text>
      </g>
      <g id="Line_1644">
        <path d="M 769.86 66.48 L 774 72 L 783.15 72" marker-end="url(#FilledArrow_Marker_5)" marker-start="url(#FilledArrow_Marker_6)" stroke="#9437ff" stroke-linecap="round" stroke-linejoin="round" stroke-width="2"/>
      </g>
      <g id="Graphic_1645">
        <path d="M 794 66 L 808 66 C 809.1046 66 810 66.89543 810 68 L 810 76 C 810 77.10457 809.1046 78 808 78 L 794 78 C 792.8954 78 792 77.10457 792 76 L 792 68 C 792 66.89543 792.8954 66 794 66 Z" fill="#ffc"/>
        <path d="M 794 66 L 808 66 C 809.1046 66 810 66.89543 810 68 L 810 76 C 810 77.10457 809.1046 78 808 78 L 794 78 C 792.8954 78 792 77.10457 792 76 L 792 68 C 792 66.89543 792.8954 66 794 66 Z" stroke="#9437ff" stroke-linecap="round" stroke-linejoin="round" stroke-width="1.5"/>
        <text transform="translate(792 67.5)" fill="#9437ff">
          <tspan font-family="Menlo" font-weight="bold" font-size="8" fill="#9437ff" x="4.1835938" y="7">DB</tspan>
        </text>
      </g>
      <g id="Line_1588">
        <path d="M 555.6 30 L 588 30 L 612 42 L 636.1214 42" marker-end="url(#FilledArrow_Marker)" marker-start="url(#FilledCenterBall_Marker_2)" stroke="black" stroke-linecap="round" stroke-linejoin="round" stroke-width="2"/>
      </g>
    </g>
  </g>
</svg>
